<?xml version="1.0" encoding="utf-8"?>
<!-- Generator: Adobe Illustrator 18.1.1, SVG Export Plug-In . SVG Version: 6.00 Build 0)  -->
<!DOCTYPE svg PUBLIC "-//W3C//DTD SVG 1.1//EN" "http://www.w3.org/Graphics/SVG/1.1/DTD/svg11.dtd">
<svg version="1.1" id="Layer_1" xmlns="http://www.w3.org/2000/svg" xmlns:xlink="http://www.w3.org/1999/xlink" x="0px" y="0px"
	 viewBox="0 0 256 246.9" style="enable-background:new 0 0 256 246.9;" xml:space="preserve">
<style type="text/css">
	.st0{fill:#BB9D6E;}
</style>
<g id="Your_Icon_2_">
	<path class="st0" d="M46.2,238.1c2.9,0.3,5.4-1.7,5.9-4.5c-0.3,3,2,5.7,5,6c3,0.3,5.8-2,6-5c0.3-3.3,1.1-11.5,1.4-14.5
		c0.1,0,0.2,0,0.2,0c19.8,1.6,42.1-13.1,46.5-44.4c1.9-13.5-1.6-27-9.8-37.9c-5.6-7.4-12.9-13-21.3-16.4c0.6-1.2,1.1-2.5,1.3-3.9
		c0.5-3.6-0.4-7.1-2.6-10c-2.2-2.9-5.3-4.7-8.9-5.2c-6.6-0.9-13,3.2-14.9,9.7c-0.2,0.6-0.3,1.2-0.4,1.8c-0.2,1.4-0.1,2.8,0.1,4.1
		c-1.5,0.2-2.9,0.4-4.3,0.7l-3.5-9.6c3.5-2.5,6.3-6.1,7.5-10.5c0.6-2.1,0.8-4.3,0.7-6.6l-1.6-24.5c-0.1-2.3-0.7-4.5-1.6-6.5L65.1,50
		c0.3,0.2,0.6,0.4,0.9,0.5c4.6,2.3,9.9,2.6,14.8,1l23.2-7.9c6-2,10.7-6.9,12.4-13c0,0,0-0.1,0-0.1l11.5-0.2
		c1.9,4.7,5.6,8.7,10.6,10.7l22.7,9.3c4.7,1.9,9.9,1.9,14.6,0.1l5.1,6.5c-1.1,1.6-1.9,3.4-2.5,5.3c-0.7,2.6-0.9,5.3-0.6,7.9
		l3.3,24.3c1,7.3,5.9,13.1,12.4,15.5l-0.3,8.1c-17.1,0.6-33.5,9.6-42.6,25.4c-2.9,5-5,10-6.4,14.8c-6.1,21.4,2,39.9,15.5,48.8
		c0.1,0,0.1,0.1,0.2,0.1c-1.6,2.6-6,9.7-7.8,12.5c-1.6,2.6-0.9,6,1.7,7.7c2.6,1.6,6,0.9,7.6-1.7l0,0c-0.2,0.4-0.4,0.7-0.5,1.1
		c-0.7,2.3,0.2,4.9,2.4,6.2c2.6,1.6,6,0.9,7.6-1.7c0.7-1.1,6.1-9.7,8-12.8c0.1,0,0.2,0,0.2,0.1c17.7,8.9,43.9,3.7,59.8-23.6
		c11.9-20.6,7.8-46-8.3-62c1-0.9,1.9-2,2.7-3.2c0.6-1,1-2,1.3-3.1c1.7-5.9-0.9-12.3-6.2-15.4c-6.4-3.7-14.7-1.5-18.5,4.9
		c-0.6,1-1,2-1.3,3.1c-0.1,0.3-0.1,0.5-0.2,0.8c-1.4-0.4-2.8-0.7-4.2-1l0.3-8.2c6.9-1.5,12.5-6.7,14.4-13.6c0.7-2.6,0.9-5.3,0.6-7.9
		l-3.3-24.3c-1.5-10.6-11.2-18-21.8-16.6c-1.8,0.2-3.5,0.7-5,1.4l-4.9-6.3c0.8-1.1,1.5-2.4,2-3.7c4.1-10-0.7-21.3-10.5-25.3
		l-22.7-9.3c-4.8-2-10.1-2-14.8,0c-4.8,2-8.5,5.7-10.5,10.5c-0.3,0.7-0.5,1.4-0.7,2.1c-0.1,0.5-0.2,0.9-0.3,1.4l-10.8,0.2
		c0-0.1-0.1-0.2-0.1-0.4c-1.7-4.9-5.1-8.9-9.8-11.1c-4.6-2.3-9.9-2.6-14.8-1l-23.2,7.9c-6,2-10.7,6.9-12.4,13
		c-1.1,3.8-1,7.8,0.3,11.5c0.3,0.9,0.7,1.8,1.1,2.6L44.8,52.4c-3.5-2.3-7.6-3.4-11.8-3.1c-8.2,0.5-15.1,6.2-17.4,14
		c-0.6,2.1-0.8,4.3-0.7,6.6l1.6,24.5c0.7,10.4,9.6,18.4,20,18.1l3.5,9.4c-13.6,6-24.3,17.8-28.5,32.7c-0.6,2.2-1.1,4.5-1.5,6.9
		c-4.4,31.3,13,51.6,32.4,55.5c0.1,0,0.2,0,0.2,0.1c-0.4,3.6-1.4,13.8-1.5,15.1C40.9,235.2,43.1,237.9,46.2,238.1z M229.7,189.1
		c-9.4,16.2-27.9,28-45.1,19.3c-5.3-2.7-11.5-1.2-14.3,3.4c2.6-4.7,0.8-10.8-4.2-14.1c-16.1-10.6-15.1-32.6-5.7-48.8
		c11.1-19.1,35.6-25.6,54.7-14.5C234.2,145.4,240.7,170,229.7,189.1z M219.8,121.5c0.7-1.2,2.1-1.5,3.3-0.9c1,0.6,1.4,1.7,1.1,2.7
		c-0.1,0.2-0.1,0.4-0.2,0.6c-0.7,1.1-2.1,1.5-3.3,0.9c0,0,0,0,0,0c0,0,0,0,0,0C219.6,124.1,219.2,122.6,219.8,121.5z M205.4,66.3
		l3.3,24.3c0.2,1.1,0.1,2.3-0.2,3.4c-0.5,1.9-1.8,3.5-3.3,4.6l0.3-7.9c0.1-3.1-2.3-5.6-5.4-5.7c-2.6-0.1-4.8,1.6-5.5,4
		c-0.1,0.4-0.2,0.9-0.2,1.3l-0.2,6.6c-0.9-1.1-1.6-2.5-1.8-4.1L189,68.6c-0.1-0.6-0.1-1.2-0.1-1.7l3.8,4.8c1.9,2.4,5.4,2.8,7.8,0.9
		c2.4-1.9,2.8-5.4,0.9-7.8l-4.4-5.6C201.2,59.1,204.9,62.1,205.4,66.3z M142.8,15.4c2-0.9,4.3-0.9,6.3,0l22.7,9.3
		c3.6,1.5,5.6,5.2,5,8.9l-2.7-3.4c-1.9-2.4-5.4-2.8-7.8-0.9c-1,0.7-1.6,1.7-1.9,2.8c-0.5,1.7-0.2,3.5,1,5l2.8,3.5
		c-0.9,0-1.8-0.2-2.7-0.6l-22.7-9.3c-0.5-0.2-1-0.5-1.4-0.7l4.2-0.1c3.1-0.1,5.5-2.6,5.4-5.7c-0.1-3.1-2.6-5.5-5.7-5.4l-6.6,0.1
		C139.8,17.3,141.1,16.1,142.8,15.4z M71.9,25.3l23.2-7.9c2.1-0.7,4.3-0.6,6.3,0.4c0.9,0.5,1.7,1.1,2.4,1.8l-4.4,0.1
		c-2.5,0.1-4.6,1.7-5.2,4c-0.1,0.5-0.2,1.1-0.2,1.6c0.1,3.1,2.6,5.5,5.7,5.4l4.3-0.1c-0.9,1.1-2.1,1.9-3.5,2.4L77.3,41
		c-0.5,0.2-1.1,0.3-1.6,0.4l4-3.3c2.4-1.9,2.7-5.4,0.8-7.8c-1.9-2.4-5.4-2.7-7.8-0.8l-6.1,5.1C65.8,30.7,68.2,26.6,71.9,25.3z
		 M27.6,93.7L26,69.2c-0.3-4.5,3.3-8.5,7.7-8.8c0.5,0,0.9,0,1.4,0l-3.7,3.1c-0.9,0.7-1.5,1.7-1.8,2.8c-0.5,1.7-0.2,3.6,1.1,5.1
		c1.9,2.4,5.4,2.7,7.8,0.8l4.1-3.4l1.6,24c0.1,1,0,1.9-0.3,2.8c-0.2,0.8-0.6,1.5-1,2.2l-2-5.4c-1.1-2.9-4.2-4.4-7.1-3.3
		c-1.7,0.6-3,2-3.4,3.7C30,93.7,30,94.9,30.5,96l1.6,4.4C29.6,99.2,27.8,96.7,27.6,93.7z M66.2,117c-0.2-0.3-0.6-0.9-0.5-1.8
		c0.2-1.3,1.4-2.2,2.7-2c0.9,0.1,1.4,0.6,1.6,0.9c0.2,0.3,0.6,0.9,0.5,1.8c0,0.1,0,0.2-0.1,0.3c-0.3,1.1-1.5,1.9-2.7,1.7l0,0
		c0,0,0,0,0,0C66.9,117.8,66.4,117.3,66.2,117z M21,163c3.1-21.9,23.4-37.1,45.2-34.1c10.6,1.5,20,7,26.4,15.6
		c6.4,8.5,9.2,19.1,7.7,29.7c-3.4,24.5-20,36.1-34.6,34.9c-5.9-0.5-11.1,3.2-12,8.5c0.6-5.3-3.4-10.3-9.2-11.5
		C25.6,202.3,18.3,181.5,21,163z"/>
</g>
<g>
</g>
<g>
</g>
<g>
</g>
<g>
</g>
<g>
</g>
<g>
</g>
</svg>
