<?xml version="1.0" encoding="utf-8"?>
<!-- Generator: Adobe Illustrator 18.1.1, SVG Export Plug-In . SVG Version: 6.00 Build 0)  -->
<!DOCTYPE svg PUBLIC "-//W3C//DTD SVG 1.1//EN" "http://www.w3.org/Graphics/SVG/1.1/DTD/svg11.dtd">
<svg version="1.1" id="Layer_1" xmlns="http://www.w3.org/2000/svg" xmlns:xlink="http://www.w3.org/1999/xlink" x="0px" y="0px"
	 viewBox="0 0 256 169" style="enable-background:new 0 0 256 169;" xml:space="preserve">
<style type="text/css">
	.st0{fill:#BB9D6E;}
</style>
<g>
	<path class="st0" d="M190.7,91.6C190.7,91.6,190.8,91.6,190.7,91.6c11.7-3.5,23.8-8.3,35.4-14.6c18.7-10.9,28.2,0.4,21.3,17.5
		c-5.9,16.1-37.3,46.2-64.7,53c-10.5-7.4-31.1-12.5-54.8-12.5c-23.7,0.1-44.3,5.2-54.8,12.6c-27.4-6.8-58.8-36.9-64.7-53
		C1.6,77.4,11.2,66.1,29.8,77c11.7,6.4,23.8,11.1,35.4,14.6c25.1,7.5,48,9.4,60.1,9.4l6.6,0C144,100.9,166.4,98.9,190.7,91.6z"/>
	<g id="XMLID_1_">
		<path class="st0" d="M156.9,15.7c9.8,4.9,25.6,50.8,31.8,69.6c-23.6,6.8-45.1,8.7-56.8,8.8l-6.6,0c-11.7,0-33.8-1.8-58-8.8
			c6.2-18.8,22-64.7,31.8-69.6c11.2-5.6,20.8,3.7,28.5,4.6h-1.5c0.6,0.1,1.2,0.1,1.9,0c0.6,0.1,1.3,0,1.9,0h-1.5
			C136.1,19.4,145.7,10.1,156.9,15.7z M153.1,51.3c0-2-1.7-3.7-3.7-3.7c-1.9,0-3.4,1.4-3.7,3.2l-11.4-1.7l-5-10.1
			c1.3-0.5,2.3-1.9,2.3-3.4c0-2-1.7-3.7-3.7-3.7s-3.7,1.7-3.7,3.7c0,1.6,1,2.9,2.3,3.4l-5,10.1l-11.4,1.7c-0.2-1.8-1.8-3.2-3.7-3.2
			c-2,0-3.7,1.7-3.7,3.7c0,2,1.7,3.7,3.7,3.7c1.3,0,2.4-0.6,3-1.6l8.1,7.9l-2,11.8c-0.5-0.2-0.9-0.3-1.5-0.3c-2,0-3.7,1.7-3.7,3.7
			c0,2,1.7,3.7,3.7,3.7c2,0,3.7-1.7,3.7-3.7c0-0.8-0.2-1.5-0.6-2.1l10.8-5.7l10.7,5.7c-0.4,0.6-0.6,1.3-0.6,2.1c0,2,1.7,3.7,3.7,3.7
			c2,0,3.7-1.7,3.7-3.7c0-2-1.7-3.7-3.7-3.7c-0.5,0-1,0.1-1.4,0.3l-2-11.8l8.1-7.9c0.7,0.9,1.8,1.6,3,1.6
			C151.4,55,153.1,53.4,153.1,51.3z"/>
	</g>
</g>
<g>
</g>
<g>
</g>
<g>
</g>
<g>
</g>
<g>
</g>
<g>
</g>
</svg>
