<svg xmlns="http://www.w3.org/2000/svg" viewBox="0 0 256 169" enable-background="new 0 0 256 169"><style type="text/css">.st0{fill:#BB9D6E;}</style><path class="st0" d="M190.7 91.6c11.7-3.5 23.8-8.3 35.4-14.6 18.7-10.9 28.2.4 21.3 17.5-5.9 16.1-37.3 46.2-64.7 53-10.5-7.4-31.1-12.5-54.8-12.5-23.7.1-44.3 5.2-54.8 12.6-27.4-6.8-58.8-36.9-64.7-53-6.8-17.2 2.8-28.5 21.4-17.6 11.7 6.4 23.8 11.1 35.4 14.6 25.1 7.5 48 9.4 60.1 9.4h6.6c12.1-.1 34.5-2.1 58.8-9.4z"/><path class="st0" d="M156.9 15.7c9.8 4.9 25.6 50.8 31.8 69.6-23.6 6.8-45.1 8.7-56.8 8.8h-6.6c-11.7 0-33.8-1.8-58-8.8 6.2-18.8 22-64.7 31.8-69.6 11.2-5.6 20.8 3.7 28.5 4.6h-1.5c.6.1 1.2.1 1.9 0 .6.1 1.3 0 1.9 0h-1.5c7.7-.9 17.3-10.2 28.5-4.6zm-3.8 35.6c0-2-1.7-3.7-3.7-3.7-1.9 0-3.4 1.4-3.7 3.2l-11.4-1.7-5-10.1c1.3-.5 2.3-1.9 2.3-3.4 0-2-1.7-3.7-3.7-3.7s-3.7 1.7-3.7 3.7c0 1.6 1 2.9 2.3 3.4l-5 10.1-11.4 1.7c-.2-1.8-1.8-3.2-3.7-3.2-2 0-3.7 1.7-3.7 3.7s1.7 3.7 3.7 3.7c1.3 0 2.4-.6 3-1.6l8.1 7.9-2 11.8c-.5-.2-.9-.3-1.5-.3-2 0-3.7 1.7-3.7 3.7s1.7 3.7 3.7 3.7 3.7-1.7 3.7-3.7c0-.8-.2-1.5-.6-2.1l10.8-5.7 10.7 5.7c-.4.6-.6 1.3-.6 2.1 0 2 1.7 3.7 3.7 3.7s3.7-1.7 3.7-3.7-1.7-3.7-3.7-3.7c-.5 0-1 .1-1.4.3l-2-11.8 8.1-7.9c.7.9 1.8 1.6 3 1.6 2 0 3.7-1.6 3.7-3.7z" id="XMLID_1_"/></svg>