<?xml version="1.0" encoding="utf-8"?>
<!-- Generator: Adobe Illustrator 18.1.1, SVG Export Plug-In . SVG Version: 6.00 Build 0)  -->
<!DOCTYPE svg PUBLIC "-//W3C//DTD SVG 1.1//EN" "http://www.w3.org/Graphics/SVG/1.1/DTD/svg11.dtd">
<svg version="1.1" id="Layer_1" xmlns="http://www.w3.org/2000/svg" xmlns:xlink="http://www.w3.org/1999/xlink" x="0px" y="0px"
	 viewBox="0 0 237.3 256" style="enable-background:new 0 0 237.3 256;" xml:space="preserve">
<style type="text/css">
	.st0{fill:#87724F;}
</style>
<g id="Your_Icon">
	<path class="st0" d="M217.5,175.9c-1.8,0-3.3,0.6-4.7,1.4L183.5,128l29.3-49.4c1.4,0.8,2.9,1.4,4.7,1.4c5.1,0,9.3-4.2,9.3-9.3
		c0-5.1-4.2-9.3-9.3-9.3c-5.1,0-9.3,4.2-9.3,9.3c0,0,0,0.1,0,0.1l-57.3,0.7l-28.1-50.1c2.8-1.6,4.8-4.5,4.8-8c0-5.1-4.2-9.3-9.3-9.3
		c-5.1,0-9.3,4.2-9.3,9.3c0,3.5,2,6.4,4.8,8L85.8,71.6l-57.3-0.7c0,0,0-0.1,0-0.1c0-5.1-4.2-9.3-9.3-9.3c-5.1,0-9.3,4.2-9.3,9.3
		c0,5.2,4.2,9.3,9.3,9.3c1.7,0,3.3-0.6,4.7-1.4L53.2,128l-29.3,49.4c-1.4-0.8-2.9-1.4-4.7-1.4c-5.1,0-9.3,4.2-9.3,9.3
		c0,5.2,4.2,9.3,9.3,9.3c5.1,0,9.3-4.2,9.3-9.3c0,0,0-0.1,0-0.1l57.3-0.7l28.1,50.1c-2.8,1.6-4.8,4.5-4.8,8c0,5.1,4.2,9.3,9.3,9.3
		c5.1,0,9.3-4.2,9.3-9.3c0-3.5-2-6.4-4.8-8l28.1-50.1l57.3,0.7c0,0,0,0.1,0,0.1c0,5.2,4.2,9.3,9.3,9.3c5.1,0,9.3-4.2,9.3-9.3
		C226.8,180.1,222.7,175.9,217.5,175.9z"/>
</g>
<g>
</g>
<g>
</g>
<g>
</g>
<g>
</g>
<g>
</g>
<g>
</g>
</svg>
