<svg xmlns="http://www.w3.org/2000/svg" viewBox="0 0 237.3 256" enable-background="new 0 0 237.3 256"><style type="text/css">.st0{fill:#87724F;}</style><path class="st0" d="M217.5 175.9c-1.8 0-3.3.6-4.7 1.4l-29.3-49.3 29.3-49.4c1.4.8 2.9 1.4 4.7 1.4 5.1 0 9.3-4.2 9.3-9.3 0-5.1-4.2-9.3-9.3-9.3-5.1 0-9.3 4.2-9.3 9.3v.1l-57.3.7-28.1-50.1c2.8-1.6 4.8-4.5 4.8-8 0-5.1-4.2-9.3-9.3-9.3-5.1 0-9.3 4.2-9.3 9.3 0 3.5 2 6.4 4.8 8l-28 50.2-57.3-.7v-.1c0-5.1-4.2-9.3-9.3-9.3-5.1 0-9.3 4.2-9.3 9.3 0 5.2 4.2 9.3 9.3 9.3 1.7 0 3.3-.6 4.7-1.4l29.3 49.3-29.3 49.4c-1.4-.8-2.9-1.4-4.7-1.4-5.1 0-9.3 4.2-9.3 9.3 0 5.2 4.2 9.3 9.3 9.3 5.1 0 9.3-4.2 9.3-9.3v-.1l57.3-.7 28.1 50.1c-2.8 1.6-4.8 4.5-4.8 8 0 5.1 4.2 9.3 9.3 9.3 5.1 0 9.3-4.2 9.3-9.3 0-3.5-2-6.4-4.8-8l28.1-50.1 57.3.7v.1c0 5.2 4.2 9.3 9.3 9.3 5.1 0 9.3-4.2 9.3-9.3-.1-5.2-4.2-9.4-9.4-9.4z" id="Your_Icon"/></svg>